<?xml version="1.0" encoding="UTF-8" standalone="no"?><!DOCTYPE svg PUBLIC "-//W3C//DTD SVG 1.1//EN" "http://www.w3.org/Graphics/SVG/1.1/DTD/svg11.dtd"><svg width="100%" height="100%" viewBox="0 0 4267 1067" version="1.1" xmlns="http://www.w3.org/2000/svg" xmlns:xlink="http://www.w3.org/1999/xlink" xml:space="preserve" xmlns:serif="http://www.serif.com/" style="fill-rule:evenodd;clip-rule:evenodd;stroke-linejoin:round;stroke-miterlimit:2;"><g><path d="M448.065,301.66c-13.805,0 -28.908,1.094 -45.31,3.28l0,322.293c15.445,2.323 30.548,3.485 45.31,3.485c48.795,0 82.691,-11.344 101.69,-34.033c13.121,-15.719 20.98,-39.569 23.577,-71.552c1.094,-12.575 1.64,-32.257 1.64,-59.046c0,-36.494 -1.298,-62.668 -3.895,-78.523c-4.784,-29.25 -16.128,-50.504 -34.033,-63.762c-19.546,-14.761 -49.205,-22.142 -88.979,-22.142Zm-142.284,395.075l-0,-460.886c47.018,-9.021 98.888,-13.532 155.61,-13.532c19.819,0 37.929,1.025 54.331,3.076c16.401,2.05 31.197,5.023 44.387,8.918c13.189,3.895 25.012,8.987 35.468,15.274c10.456,6.287 19.58,13.258 27.37,20.912c7.791,7.654 14.523,16.743 20.195,27.268c5.672,10.524 10.388,21.493 14.146,32.906c3.759,11.412 6.732,24.5 8.919,39.261c2.187,14.761 3.724,29.728 4.613,44.899c0.888,15.172 1.332,32.257 1.332,51.256c0,18.998 -0.444,36.083 -1.332,51.255c-0.889,15.171 -2.426,30.138 -4.613,44.899c-2.187,14.762 -5.16,27.849 -8.919,39.262c-3.758,11.412 -8.474,22.381 -14.146,32.905c-5.672,10.525 -12.404,19.614 -20.195,27.268c-7.79,7.654 -16.914,14.625 -27.37,20.912c-10.456,6.288 -22.279,11.379 -35.468,15.274c-13.19,3.896 -27.986,6.868 -44.387,8.919c-16.402,2.05 -34.512,3.075 -54.331,3.075c-56.449,-0 -108.319,-4.374 -155.61,-13.121Z" style="fill:#178bff;"/><path d="M880.863,709.856c-49.478,-0 -85.288,-9.533 -107.431,-28.6c-22.142,-19.067 -33.213,-48.351 -33.213,-87.852c0,-33.213 7.996,-59.456 23.987,-78.728c15.992,-19.271 41.688,-31.709 77.088,-37.313c24.603,-3.964 63.556,-7.039 116.862,-9.226c-0,-21.186 -5.262,-36.665 -15.787,-46.437c-10.524,-9.773 -27.609,-14.659 -51.255,-14.659c-36.767,-0 -79.753,3.143 -128.958,9.431l-7.381,-67.657c54.263,-9.294 102.032,-13.942 143.31,-13.942c17.358,0 33.008,1.026 46.95,3.076c13.941,2.05 27.438,5.74 40.491,11.071c13.053,5.33 23.953,12.301 32.701,20.912c8.747,8.611 15.752,19.887 21.014,33.828c5.263,13.942 7.894,30.138 7.894,48.59l-0,154.381c-0,22.825 -1.025,45.924 -3.076,69.297c-38.68,22.552 -93.079,33.828 -163.196,33.828Zm77.293,-127.933l-0,-54.33c-1.914,0.136 -6.424,0.376 -13.532,0.717c-7.107,0.342 -12.164,0.581 -15.171,0.718c-3.007,0.137 -7.62,0.444 -13.839,0.922c-6.219,0.479 -11.242,0.957 -15.069,1.436c-3.827,0.478 -8.201,1.093 -13.121,1.845c-4.921,0.752 -9.431,1.606 -13.532,2.563c-11.344,2.733 -20.023,5.945 -26.037,9.636c-6.014,3.69 -10.559,9.225 -13.634,16.606c-3.075,7.381 -4.613,17.427 -4.613,30.138c-0,18.315 5.023,30.992 15.069,38.032c10.046,7.039 25.662,10.558 46.847,10.558c27.61,0 49.068,-3.28 64.377,-9.841c1.503,-13.531 2.255,-29.865 2.255,-49Z" style="fill:#178bff;"/><path d="M1227.96,466.497l-0,238.438l-90.619,0l-0,-266.936c-0,-22.826 1.025,-45.925 3.075,-69.297c42.508,-22.552 97.043,-33.829 163.606,-33.829c18.452,0 34.922,1.196 49.41,3.588c14.488,2.392 26.79,5.638 36.904,9.739c10.114,4.1 18.828,9.499 26.14,16.196c7.313,6.698 13.087,13.6 17.324,20.708c4.237,7.107 7.552,15.718 9.944,25.832c2.392,10.114 3.964,19.785 4.715,29.01c0.752,9.226 1.128,20.058 1.128,32.496l-0,232.493l-90.619,0l-0,-224.292c-0,-9.158 -0.342,-16.914 -1.025,-23.27c-0.684,-6.355 -1.948,-12.472 -3.793,-18.349c-1.845,-5.877 -4.442,-10.627 -7.791,-14.249c-3.349,-3.622 -7.688,-6.8 -13.019,-9.533c-5.33,-2.734 -11.823,-4.682 -19.477,-5.844c-7.654,-1.161 -16.743,-1.742 -27.267,-1.742c-23.646,-0 -42.44,3.28 -56.381,9.841c-1.503,13.531 -2.255,29.864 -2.255,49Z" style="fill:#178bff;"/><path d="M1548.41,828.973l7.381,-67.452c50.571,7.108 94.719,10.661 132.443,10.661c24.192,0 41.961,-5.57 53.305,-16.709c11.345,-11.139 17.017,-28.054 17.017,-50.743l-0,-10.866c-24.193,5.194 -47.428,7.791 -69.707,7.791c-28.566,0 -52.69,-3.041 -72.372,-9.123c-19.682,-6.083 -36.426,-16.231 -50.23,-30.446c-13.805,-14.215 -23.885,-33.076 -30.241,-56.585c-6.356,-23.509 -9.533,-52.554 -9.533,-87.134c-0,-28.02 2.221,-52.349 6.663,-72.987c4.442,-20.639 11.037,-38.032 19.784,-52.178c8.748,-14.147 20.195,-25.525 34.341,-34.136c14.147,-8.611 30.275,-14.796 48.385,-18.554c18.11,-3.759 39.398,-5.639 63.864,-5.639c26.516,0 52.759,2.802 78.728,8.406c25.969,5.604 48.658,14.078 68.067,25.423c2.05,21.185 3.075,44.284 3.075,69.297l-0,288.054c-0,18.588 -2.631,34.887 -7.893,48.897c-5.263,14.01 -12.302,25.354 -21.117,34.033c-8.816,8.68 -19.785,15.719 -32.906,21.118c-13.122,5.398 -26.721,9.123 -40.799,11.173c-14.078,2.05 -29.797,3.075 -47.155,3.075c-42.644,0 -93.011,-5.125 -151.1,-15.376Zm151.1,-422.752c-10.524,-0 -19.921,1.127 -28.19,3.382c-8.27,2.256 -15.24,5.194 -20.912,8.816c-5.673,3.622 -10.525,8.338 -14.557,14.147c-4.032,5.809 -7.21,11.652 -9.533,17.529c-2.324,5.877 -4.135,12.95 -5.433,21.22c-1.299,8.269 -2.119,15.855 -2.461,22.757c-0.341,6.902 -0.512,15.001 -0.512,24.295c-0,8.337 0.068,15.274 0.205,20.809c0.136,5.536 0.547,11.857 1.23,18.965c0.683,7.107 1.606,12.984 2.768,17.632c1.161,4.647 2.802,9.738 4.92,15.274c2.119,5.535 4.682,10.046 7.688,13.531c3.007,3.485 6.766,6.971 11.277,10.456c4.51,3.485 9.67,6.219 15.479,8.201c5.809,1.982 12.54,3.588 20.194,4.818c7.654,1.23 16.197,1.845 25.628,1.845c17.221,-0 34.306,-2.665 51.255,-7.996l-0,-157.046c-0,-19.135 -0.752,-35.468 -2.255,-48.999c-13.942,-6.424 -32.872,-9.636 -56.791,-9.636Z" style="fill:#178bff;"/><path d="M2085.15,709.856c-24.193,-0 -45.447,-3.109 -63.762,-9.328c-18.315,-6.219 -33.282,-14.694 -44.899,-25.423c-11.618,-10.729 -21.015,-24.158 -28.191,-40.287c-7.175,-16.128 -12.198,-33.213 -15.069,-51.255c-2.87,-18.041 -4.305,-38.475 -4.305,-61.301c-0,-33.76 2.802,-62.189 8.406,-85.288c5.604,-23.099 14.864,-42.405 27.78,-57.919c12.916,-15.513 29.728,-26.755 50.435,-33.725c20.707,-6.971 46.437,-10.457 77.19,-10.457c18.862,0 35.811,1.436 50.845,4.306c15.035,2.87 28.122,6.868 39.262,11.994c11.139,5.125 20.844,11.788 29.113,19.989c8.269,8.201 15.035,17.085 20.297,26.653c5.262,9.567 9.499,20.741 12.711,33.521c3.212,12.779 5.433,25.798 6.663,39.056c1.23,13.258 1.845,28.225 1.845,44.9c0,9.704 -0.41,19.476 -1.23,29.317c-19.955,3.691 -47.154,7.313 -81.598,10.867c-34.443,3.553 -64.855,6.013 -91.234,7.38l-60.071,3.076c0.82,14.078 3.246,25.798 7.278,35.161c4.032,9.362 9.875,16.606 17.529,21.732c7.655,5.125 16.334,8.747 26.038,10.866c9.704,2.118 21.527,3.178 35.469,3.178c36.63,-0 80.504,-3.212 131.623,-9.636l7.585,68.682c-56.312,9.294 -109.549,13.941 -159.71,13.941Zm-68.477,-206.251l62.736,-3.075c31.026,-1.64 58.362,-4.032 82.008,-7.176c0.547,-3.69 0.82,-8.542 0.82,-14.556c0,-24.876 -5.33,-43.464 -15.991,-55.766c-10.661,-12.301 -28.498,-18.452 -53.511,-18.452c-13.121,0 -24.329,1.675 -33.623,5.023c-9.294,3.349 -16.675,7.723 -22.142,13.122c-5.468,5.399 -9.739,12.574 -12.814,21.527c-3.075,8.952 -5.091,17.905 -6.048,26.858c-0.957,8.952 -1.435,19.784 -1.435,32.495Z" style="fill:#178bff;"/><path d="M2422.62,704.935l-90.414,0l0,-266.936c0,-25.013 1.025,-48.112 3.076,-69.297c19.408,-11.345 42.097,-19.819 68.066,-25.423c25.97,-5.604 52.212,-8.406 78.728,-8.406c13.122,0 25.491,0.616 37.109,1.846l-7.381,72.987c-7.107,-0.957 -15.855,-1.435 -26.242,-1.435c-11.208,-0 -22.382,0.991 -33.521,2.973c-11.14,1.981 -20.195,4.749 -27.166,8.303c-1.503,13.531 -2.255,29.865 -2.255,49l0,236.388Z" style="fill:#178bff;"/><path d="M2681.76,526.158l0,178.777l-96.77,0l0,-469.496c47.702,-8.748 99.504,-13.122 155.406,-13.122c16.402,0 31.163,0.513 44.284,1.538c13.122,1.025 26.516,2.939 40.184,5.74c13.669,2.802 25.628,6.561 35.879,11.277c10.251,4.715 20.024,10.934 29.318,18.656c9.294,7.723 16.914,16.812 22.86,27.268c5.945,10.456 10.661,23.031 14.146,37.724c3.486,14.693 5.228,31.197 5.228,49.512c0,17.906 -1.572,34.068 -4.715,48.488c-3.144,14.42 -7.483,26.96 -13.019,37.621c-5.536,10.661 -12.643,19.955 -21.322,27.883c-8.679,7.927 -18.042,14.454 -28.088,19.579c-10.046,5.126 -21.63,9.26 -34.751,12.404c-13.121,3.144 -26.448,5.331 -39.979,6.561c-13.531,1.23 -28.498,1.845 -44.899,1.845c-19.956,-0 -41.21,-0.752 -63.762,-2.255Zm0,-223.883l0,147.205c14.215,1.777 33.897,2.665 59.046,2.665c16.128,0 29.762,-1.162 40.902,-3.485c11.139,-2.324 20.946,-6.356 29.42,-12.096c8.474,-5.741 14.762,-13.771 18.862,-24.09c4.1,-10.32 6.151,-23.133 6.151,-38.442c-0,-27.609 -6.869,-47.154 -20.605,-58.635c-13.736,-11.482 -37.963,-17.222 -72.68,-17.222c-20.502,-0 -40.867,1.367 -61.096,4.1Z" style="fill:#ff4e89;"/><path d="M3090.37,704.935l-90.414,0l-0,-266.936c-0,-25.013 1.025,-48.112 3.075,-69.297c19.409,-11.345 42.098,-19.819 68.067,-25.423c25.969,-5.604 52.212,-8.406 78.728,-8.406c13.121,0 25.491,0.616 37.109,1.846l-7.381,72.987c-7.107,-0.957 -15.855,-1.435 -26.243,-1.435c-11.207,-0 -22.381,0.991 -33.521,2.973c-11.139,1.981 -20.194,4.749 -27.165,8.303c-1.503,13.531 -2.255,29.865 -2.255,49l0,236.388Z" style="fill:#ff4e89;"/><path d="M3390.11,709.856c-24.192,-0 -45.446,-3.109 -63.761,-9.328c-18.316,-6.219 -33.282,-14.694 -44.9,-25.423c-11.618,-10.729 -21.014,-24.158 -28.19,-40.287c-7.176,-16.128 -12.199,-33.213 -15.069,-51.255c-2.87,-18.041 -4.306,-38.475 -4.306,-61.301c0,-33.76 2.802,-62.189 8.406,-85.288c5.604,-23.099 14.864,-42.405 27.781,-57.919c12.916,-15.513 29.727,-26.755 50.435,-33.725c20.707,-6.971 46.437,-10.457 77.19,-10.457c18.862,0 35.81,1.436 50.845,4.306c15.035,2.87 28.122,6.868 39.261,11.994c11.14,5.125 20.844,11.788 29.113,19.989c8.269,8.201 15.035,17.085 20.297,26.653c5.262,9.567 9.5,20.741 12.711,33.521c3.212,12.779 5.434,25.798 6.664,39.056c1.23,13.258 1.845,28.225 1.845,44.9c-0,9.704 -0.41,19.476 -1.23,29.317c-19.956,3.691 -47.155,7.313 -81.598,10.867c-34.444,3.553 -64.855,6.013 -91.235,7.38l-60.071,3.076c0.821,14.078 3.247,25.798 7.279,35.161c4.032,9.362 9.875,16.606 17.529,21.732c7.654,5.125 16.333,8.747 26.038,10.866c9.704,2.118 21.527,3.178 35.468,3.178c36.63,-0 80.505,-3.212 131.623,-9.636l7.586,68.682c-56.312,9.294 -109.549,13.941 -159.711,13.941Zm-68.477,-206.251l62.736,-3.075c31.027,-1.64 58.363,-4.032 82.009,-7.176c0.546,-3.69 0.82,-8.542 0.82,-14.556c-0,-24.876 -5.331,-43.464 -15.992,-55.766c-10.661,-12.301 -28.498,-18.452 -53.51,-18.452c-13.122,0 -24.329,1.675 -33.624,5.023c-9.294,3.349 -16.675,7.723 -22.142,13.122c-5.467,5.399 -9.738,12.574 -12.814,21.527c-3.075,8.952 -5.091,17.905 -6.048,26.858c-0.956,8.952 -1.435,19.784 -1.435,32.495Z" style="fill:#ff4e89;"/><path d="M3728.8,702.065l-0,137.364l-90.824,-0l-0,-401.43c-0,-25.013 1.025,-48.112 3.075,-69.297c19.545,-11.345 42.303,-19.819 68.272,-25.423c25.969,-5.604 52.212,-8.406 78.728,-8.406c25.012,0 46.608,1.914 64.786,5.741c18.179,3.827 34.307,10.114 48.385,18.862c14.078,8.747 25.388,20.399 33.931,34.956c8.543,14.556 14.967,32.325 19.272,53.305c4.305,20.981 6.458,45.891 6.458,74.73c0,28.293 -2.084,52.896 -6.253,73.808c-4.169,20.912 -10.319,38.646 -18.452,53.202c-8.132,14.557 -18.828,26.277 -32.086,35.161c-13.258,8.885 -28.429,15.309 -45.514,19.272c-17.085,3.964 -37.109,5.946 -60.071,5.946c-22.279,-0 -45.515,-2.597 -69.707,-7.791Zm-0,-71.962c16.948,5.331 34.033,7.996 51.255,7.996c36.22,-0 60.891,-9.158 74.012,-27.473c8.748,-12.301 13.737,-31.778 14.967,-58.431c0.273,-7.107 0.41,-17.016 0.41,-29.728c-0,-10.251 -0.137,-18.725 -0.41,-25.422c-0.273,-6.698 -0.991,-14.523 -2.153,-23.475c-1.162,-8.953 -2.802,-16.333 -4.92,-22.142c-2.119,-5.809 -5.194,-11.823 -9.226,-18.042c-4.032,-6.219 -8.85,-11.14 -14.454,-14.762c-5.604,-3.622 -12.677,-6.594 -21.22,-8.918c-8.542,-2.324 -18.212,-3.485 -29.01,-3.485c-24.056,-0 -43.055,3.212 -56.996,9.636c-1.503,13.531 -2.255,29.864 -2.255,48.999l-0,165.247Z" style="fill:#ff4e89;"/></g></svg>