<?xml version="1.0" encoding="UTF-8" standalone="no"?><!DOCTYPE svg PUBLIC "-//W3C//DTD SVG 1.1//EN" "http://www.w3.org/Graphics/SVG/1.1/DTD/svg11.dtd"><svg width="100%" height="100%" viewBox="0 0 6667 4000" version="1.1" xmlns="http://www.w3.org/2000/svg" xmlns:xlink="http://www.w3.org/1999/xlink" xml:space="preserve" xmlns:serif="http://www.serif.com/" style="fill-rule:evenodd;clip-rule:evenodd;"><g id="Full-Color" serif:id="Full Color"><g id="Background"><rect x="0" y="0" width="6666.67" height="4000" style="fill:url(#_Radial1);"/><path d="M2000,567.583c-213.5,23.042 -218.792,188.875 -285.708,432.417c-129.834,472.667 -195.25,540.625 -107.75,1000c55.333,290.625 201.458,500 393.458,500c186.542,0 175.875,-254.5 363.625,-500c312.25,-408.333 221.958,-587.917 636.375,-807.708c403.75,-214.167 499.542,-43.375 1000,-60.209c499.542,-16.791 508.292,-69.791 1000,-7.083c508.292,64.792 524.75,298.5 1000,262.083c340.542,-26.083 631.583,-226.125 631.583,-387.083c0,-145.792 -307.083,-216.958 -631.583,-226.417c-491.292,-14.333 -607.417,357.667 -1000,178.792c-456.25,-207.917 -697.667,-653.083 -697.667,-952.375c0,-176.875 348.834,-90.742 697.667,-90.742c500,0 500,19.266 1000,19.266c500,-0 750,-178.524 1000,71.476c250,250 0,500 0,1000l0,2000c0,205.125 54.708,217.625 0,410.25c-87.292,307.375 -45.167,448.917 -283.958,589.75c-261.209,154.042 -358,76.722 -716.042,76.722c-207.551,0 -159.993,-174.176 -198.607,-273.011c-16.386,-41.938 -85.086,-87.075 -134.227,-87.075c-103.358,-0 -182.75,11.027 -380.961,11.027c-95.139,-0 -454.719,27.171 -520.541,27.171c-280.105,0 -360.803,321.888 -765.664,321.888l-972.865,0c-166.666,0 -219.093,-3.222 -360.468,-76.722c-358.625,-186.5 -324.834,-520 -666.667,-520c-373.875,0 -366.125,312.75 -764.708,520c-101.417,52.75 -145.813,76.722 -263.479,76.722c-500,0 -721.813,173.278 -971.813,-76.722c-250,-250 -160.52,-402.676 -160.52,-902.676c-0,-500 477.352,-85.046 477.352,-585.046c0,-500 -460.807,-684.737 -460.807,-1184.74c0,-500 -131.581,-1118.28 118.419,-1368.28c250,-250 530.62,-137.873 1030.62,-137.873c500,-0 494.936,-142.939 994.936,-142.939c500,0 509.31,142.995 1009.31,142.995c352.292,-0 695.232,11.637 695.232,178.554c-0,263.625 -264.5,714.583 -704.542,861.125c-412.208,137.25 -570.667,-339.917 -1000,-293.542" style="fill:none;fill-rule:nonzero;stroke:#6096cf;stroke-opacity:0.58;stroke-width:41.67px;"/><path d="M1920,0c75.625,282.375 -455.542,456.458 -652.125,1000c-165.083,456.458 -227.75,558.583 -71.167,1000c198.125,558.583 830.875,561.042 780.584,1000c-48.042,419.375 -437.917,558.75 -977.292,716.667c-449.25,131.541 -682.25,90 -1000,-137.709c-182.25,-130.625 -134.129,-355.66 -134.129,-645.118c0,-500 228.398,-43.507 228.398,-543.507c0,-500 -442.496,-339.131 -442.496,-839.131c-0,-500 58.88,-1328.81 308.88,-1578.81c250,-250 461.951,194.276 961.951,194.276c198.967,-0 242.99,-424.23 413.506,-488.216c223.707,-83.946 550.812,198.055 583.89,321.549" style="fill:none;fill-rule:nonzero;stroke:#6096cf;stroke-opacity:0.58;stroke-width:41.67px;"/><path d="M3000,513.875c-403.5,0 -902.458,-376.417 -902.458,-513.875c-0,-119.458 451.208,-53.093 902.458,-53.093c210.208,0 420.458,-46.532 420.458,53.093c0,157.333 -162.5,513.875 -420.458,513.875" style="fill:none;fill-rule:nonzero;stroke:#6096cf;stroke-opacity:0.58;stroke-width:41.67px;"/><path d="M5000,555.542c-281.625,-60.417 -406.958,-380.959 -406.958,-555.542c-0,-103.167 203.458,-90.742 406.958,-90.742c500,0 501.188,-82.045 1001.19,-82.045c500,0 676.229,-4.63 998.812,172.787c177.417,97.583 174,497.458 0,550c-326,98.417 -500.333,-249.5 -1000,-248.125c-500.333,1.375 -578.125,344.167 -1000,253.667" style="fill:none;fill-rule:nonzero;stroke:#6096cf;stroke-opacity:0.58;stroke-width:41.67px;"/><path d="M2742.42,2000c-0,-178.208 73.083,-268.792 257.583,-326.917c444.292,-140 522.458,-154.125 1000,-69.291c442.458,78.625 428.875,183.458 840,396.208c88.875,45.958 94.5,45.667 160,121.208c368.167,424.459 337.25,454.875 707.333,878.792c129.917,148.792 180.417,106.333 292.667,266.667c237.792,339.666 360.008,486.541 360.008,733.333c-0,119.875 123.4,76.722 -80.308,76.722c-500,0 166.951,128.875 -333.049,128.875c-500,0 -1446.65,-205.597 -1946.65,-205.597c-269.25,0 -409.792,172.625 -538.458,0c-244.042,-327.375 -53.917,-518.583 -207,-1000c-77.709,-244.375 -136.459,-221.083 -254.542,-451.625c-138,-269.458 -257.583,-288.958 -257.583,-548.375" style="fill:none;fill-rule:nonzero;stroke:#6096cf;stroke-opacity:0.58;stroke-width:41.67px;"/><path d="M6120,2000c0,-371.917 609.708,-709.667 880,-709.667c169.708,0 0,354.834 0,709.667c0,415.125 179.083,830.208 0,830.208c-260.917,0 -880,-432.208 -880,-830.208" style="fill:none;fill-rule:nonzero;stroke:#6096cf;stroke-opacity:0.58;stroke-width:41.67px;"/><path d="M1000,677.417c-418.208,36.833 -549.292,-247.125 -1000,-552.417c-49.292,-33.417 -103.651,-172.144 -48.11,-179.102c444.459,-55.542 546.98,-24.75 1046.98,-24.75c30.478,0 123.969,3.852 153.805,0c175.741,-22.687 267.325,-21.061 267.325,78.852c0,221.833 -128.208,651.75 -420,677.417" style="fill:none;fill-rule:nonzero;stroke:#6096cf;stroke-opacity:0.58;stroke-width:41.67px;"/><path d="M3000,166.667c-130.833,-0 -292.667,-122.084 -292.667,-166.667c0,-38.75 146.334,-53.093 292.667,-53.093c68.208,0 136.375,20.801 136.375,53.093c0,51.042 -52.708,166.667 -136.375,166.667" style="fill:none;fill-rule:nonzero;stroke:#6096cf;stroke-opacity:0.58;stroke-width:41.67px;"/><path d="M5000,158.75c-84.708,0 -116.292,-108.875 -116.292,-158.75c0,-29.5 102.109,-53.093 160.234,-53.093c263.166,0 482.391,14.26 482.391,53.093c0,40.542 -289.708,158.75 -526.333,158.75" style="fill:none;fill-rule:nonzero;stroke:#6096cf;stroke-opacity:0.58;stroke-width:41.67px;"/><path d="M0,1466.67c162.75,-0 273.917,268.708 551.708,533.333c222.209,211.708 249.542,187.583 448.292,419.375c229.958,268.208 409.083,323.75 409.083,580.625c0,183.458 -173.958,276.583 -409.083,300c-469.417,46.75 -560.875,-27.917 -1000,-159.667c-60.875,-18.25 -238.804,-70.166 -238.804,-140.333c0,-500 62.71,-500 62.71,-1000c-0,-266.667 62.969,-533.333 176.094,-533.333" style="fill:none;fill-rule:nonzero;stroke:#6096cf;stroke-opacity:0.58;stroke-width:41.67px;"/><path d="M6620,2000c0,-160.625 263.292,-306.458 380,-306.458c73.292,-0 0,153.25 0,306.458c0,179.25 77.333,358.5 0,358.5c-112.667,0 -380,-186.625 -380,-358.5" style="fill:none;fill-rule:nonzero;stroke:#6096cf;stroke-opacity:0.58;stroke-width:41.67px;"/><path d="M3709.08,3000c0,-392.167 24.167,-774.958 290.917,-800c378.708,-35.542 513.833,324.417 1000,678.792c62.583,45.625 81.098,53.971 97.542,121.208c37.288,152.465 40.541,258.792 -97.542,333.333c-410.708,221.75 -606.208,360.917 -1000,259.25c-251.667,-65 -290.917,-288.458 -290.917,-592.583" style="fill:none;fill-rule:nonzero;stroke:#6096cf;stroke-opacity:0.58;stroke-width:41.67px;"/><path d="M4905.65,4057.56c-0,-41.562 234.03,-154.336 439.134,-174.639c20.672,-2.046 41.051,-3.153 60.866,-3.153c82.958,-0 98.75,117.958 98.75,177.792c-0,29.041 -49.375,-0 -98.75,-0c-250,-0 -500,43.125 -500,-0" style="fill:none;fill-rule:nonzero;stroke:#6096cf;stroke-opacity:0.58;stroke-width:41.67px;"/></g></g><defs><radialGradient id="_Radial1" cx="0" cy="0" r="1" gradientUnits="userSpaceOnUse" gradientTransform="matrix(5333.33,5333.6,-5333.6,5333.33,666.667,-666.8)"><stop offset="0" style="stop-color:#010d1a;stop-opacity:1"/><stop offset="0.48" style="stop-color:#081a2d;stop-opacity:1"/><stop offset="1" style="stop-color:#1d3c60;stop-opacity:1"/></radialGradient></defs></svg>