<?xml version="1.0" encoding="UTF-8" standalone="no"?><!DOCTYPE svg PUBLIC "-//W3C//DTD SVG 1.1//EN" "http://www.w3.org/Graphics/SVG/1.1/DTD/svg11.dtd"><svg width="100%" height="100%" viewBox="0 0 2134 2134" version="1.1" xmlns="http://www.w3.org/2000/svg" xmlns:xlink="http://www.w3.org/1999/xlink" xml:space="preserve" xmlns:serif="http://www.serif.com/" style="fill-rule:evenodd;clip-rule:evenodd;"><g id="Background"><rect x="-1780.62" y="-311.828" width="6666.67" height="4000" style="fill:url(#_Radial1);"/><path d="M219.382,255.755c-213.5,23.042 -218.791,188.875 -285.708,432.417c-129.833,472.666 -195.25,540.625 -107.75,1000c55.333,290.625 201.458,500 393.458,500c186.542,-0 175.875,-254.5 363.625,-500c312.25,-408.334 221.959,-587.917 636.375,-807.709c403.75,-214.166 499.542,-43.375 1000,-60.208c499.542,-16.792 508.292,-69.792 1000,-7.083c508.292,64.791 524.75,298.5 1000,262.083c340.542,-26.083 631.584,-226.125 631.584,-387.083c-0,-145.792 -307.084,-216.959 -631.584,-226.417c-491.291,-14.333 -607.416,357.667 -1000,178.792c-456.25,-207.917 -697.666,-653.084 -697.666,-952.375c-0,-176.875 348.833,-90.742 697.666,-90.742c500,-0 500,19.265 1000,19.265c500,0 750,-178.523 1000,71.477c250,250 0,500 0,1000l0,2000c0,205.125 54.709,217.625 0,410.25c-87.291,307.375 -45.166,448.916 -283.958,589.75c-261.208,154.041 -358,76.722 -716.042,76.722c-207.551,0 -159.992,-174.176 -198.607,-273.011c-16.385,-41.938 -85.086,-87.075 -134.227,-87.075c-103.358,-0 -182.75,11.026 -380.961,11.026c-95.139,0 -454.718,27.172 -520.541,27.172c-280.105,0 -360.803,321.888 -765.664,321.888l-972.865,0c-166.666,0 -219.093,-3.222 -360.468,-76.722c-358.625,-186.5 -324.833,-520 -666.667,-520c-373.875,-0 -366.125,312.75 -764.708,520c-101.417,52.75 -145.813,76.722 -263.479,76.722c-500,0 -721.813,173.278 -971.813,-76.722c-250,-250 -160.52,-402.677 -160.52,-902.677c-0,-500 477.353,-85.045 477.353,-585.045c-0,-500 -460.807,-684.738 -460.807,-1184.74c-0,-500 -131.582,-1118.28 118.418,-1368.28c250,-250 530.62,-137.874 1030.62,-137.874c500,0 494.936,-142.938 994.936,-142.938c500,-0 509.311,142.995 1009.31,142.995c352.291,-0 695.231,11.637 695.231,178.554c-0,263.625 -264.5,714.583 -704.542,861.125c-412.208,137.25 -570.666,-339.917 -1000,-293.542" style="fill:none;fill-rule:nonzero;stroke:#6096cf;stroke-opacity:0.58;stroke-width:41.67px;"/><path d="M139.382,-311.828c75.625,282.375 -455.541,456.458 -652.125,1000c-165.083,456.458 -227.75,558.583 -71.166,1000c198.125,558.583 830.875,561.041 780.583,1000c-48.042,419.375 -437.917,558.75 -977.292,716.666c-449.25,131.542 -682.25,90 -1000,-137.708c-182.25,-130.625 -134.129,-355.66 -134.129,-645.118c0,-500 228.398,-43.508 228.398,-543.508c0,-500 -442.496,-339.131 -442.496,-839.131c0,-500 58.88,-1328.81 308.88,-1578.81c250,-250 461.952,194.276 961.952,194.276c198.966,0 242.989,-424.229 413.505,-488.215c223.707,-83.946 550.812,198.055 583.89,321.549" style="fill:none;fill-rule:nonzero;stroke:#6096cf;stroke-opacity:0.58;stroke-width:41.67px;"/><path d="M1219.38,202.047c-403.5,-0 -902.458,-376.417 -902.458,-513.875c-0,-119.459 451.208,-53.093 902.458,-53.093c210.209,0 420.459,-46.532 420.459,53.093c-0,157.333 -162.5,513.875 -420.459,513.875" style="fill:none;fill-rule:nonzero;stroke:#6096cf;stroke-opacity:0.58;stroke-width:41.67px;"/><path d="M961.799,1688.17c-0,-178.209 73.083,-268.792 257.583,-326.917c444.292,-140 522.459,-154.125 1000,-69.292c442.459,78.625 428.875,183.459 840,396.209c88.875,45.958 94.5,45.666 160,121.208c368.167,424.458 337.25,454.875 707.334,878.792c129.916,148.791 180.416,106.333 292.666,266.666c237.792,339.667 360.008,486.542 360.008,733.334c0,119.875 123.4,76.722 -80.308,76.722c-500,0 166.951,128.875 -333.049,128.875c-500,0 -1446.65,-205.597 -1946.65,-205.597c-269.25,-0 -409.791,172.625 -538.458,-0c-244.042,-327.375 -53.917,-518.584 -207,-1000c-77.708,-244.375 -136.458,-221.084 -254.542,-451.625c-138,-269.459 -257.583,-288.959 -257.583,-548.375" style="fill:none;fill-rule:nonzero;stroke:#6096cf;stroke-opacity:0.58;stroke-width:41.67px;"/><path d="M1928.47,2688.17c-0,-392.167 24.166,-774.959 290.916,-800c378.709,-35.542 513.834,324.416 1000,678.791c62.584,45.625 81.098,53.972 97.542,121.209c37.288,152.465 40.542,258.791 -97.542,333.333c-410.708,221.75 -606.208,360.917 -1000,259.25c-251.666,-65 -290.916,-288.458 -290.916,-592.583" style="fill:none;fill-rule:nonzero;stroke:#6096cf;stroke-opacity:0.58;stroke-width:41.67px;"/><g><path d="M575.627,745.137c-26.995,-0 -56.528,2.138 -88.601,6.414l-0,630.231c30.202,4.544 59.735,6.815 88.601,6.815c95.417,0 161.7,-22.183 198.851,-66.551c25.659,-30.736 41.027,-77.375 46.105,-139.917c2.138,-24.589 3.207,-63.077 3.207,-115.462c0,-71.362 -2.539,-122.545 -7.617,-153.549c-9.355,-57.196 -31.538,-98.757 -66.551,-124.683c-38.22,-28.865 -96.219,-43.298 -173.995,-43.298Zm-278.232,772.553l0,-901.245c91.942,-17.64 193.373,-26.46 304.291,-26.46c38.755,-0 74.168,2.004 106.241,6.013c32.073,4.009 61.005,9.823 86.797,17.44c25.792,7.617 48.911,17.573 69.358,29.868c20.446,12.294 38.287,25.925 53.521,40.893c15.235,14.967 28.398,32.741 39.49,53.321c11.092,20.58 20.313,42.028 27.663,64.346c7.35,22.317 13.163,47.908 17.439,76.774c4.277,28.865 7.283,58.132 9.021,87.799c1.737,29.668 2.606,63.077 2.606,100.228c-0,37.151 -0.869,70.56 -2.606,100.227c-1.738,29.667 -4.744,58.934 -9.021,87.799c-4.276,28.866 -10.089,54.457 -17.439,76.775c-7.35,22.317 -16.571,43.766 -27.663,64.346c-11.092,20.58 -24.255,38.353 -39.49,53.321c-15.234,14.967 -33.075,28.598 -53.521,40.893c-20.447,12.294 -43.566,22.25 -69.358,29.867c-25.792,7.618 -54.724,13.431 -86.797,17.44c-32.073,4.009 -67.486,6.014 -106.241,6.014c-110.384,-0 -211.814,-8.553 -304.291,-25.659Z" style="fill:#b3d9ff;"/><path d="M1346.03,1184.13l-0,349.594l-189.23,-0l0,-918.084c93.279,-17.106 194.575,-25.658 303.89,-25.658c32.073,-0 60.938,1.002 86.597,3.007c25.658,2.004 51.851,5.746 78.578,11.225c26.727,5.479 50.114,12.829 70.159,22.05c20.046,9.221 39.156,21.382 57.33,36.483c18.175,15.101 33.076,32.874 44.702,53.321c11.626,20.446 20.847,45.035 27.663,73.767c6.815,28.732 10.223,61.005 10.223,96.82c-0,35.013 -3.074,66.618 -9.221,94.815c-6.147,28.198 -14.633,52.72 -25.458,73.567c-10.824,20.848 -24.723,39.022 -41.694,54.524c-16.972,15.502 -35.281,28.264 -54.925,38.287c-19.645,10.023 -42.296,18.108 -67.954,24.255c-25.659,6.147 -51.718,10.424 -78.178,12.829c-26.46,2.406 -55.726,3.608 -87.799,3.608c-39.022,0 -80.583,-1.47 -124.683,-4.41Zm-0,-437.793l-0,287.853c27.796,3.475 66.284,5.212 115.462,5.212c31.538,-0 58.199,-2.272 79.982,-6.816c21.782,-4.543 40.959,-12.428 57.53,-23.653c16.571,-11.226 28.866,-26.928 36.884,-47.107c8.018,-20.179 12.027,-45.236 12.027,-75.171c0,-53.989 -13.43,-92.209 -40.291,-114.66c-26.861,-22.451 -74.235,-33.677 -142.123,-33.677c-40.091,0 -79.915,2.673 -119.471,8.019Z" style="fill:#ffb1cb;"/></g></g><defs><radialGradient id="_Radial1" cx="0" cy="0" r="1" gradientUnits="userSpaceOnUse" gradientTransform="matrix(5333.33,5333.6,-5333.6,5333.33,-1113.95,-978.628)"><stop offset="0" style="stop-color:#010d1a;stop-opacity:1"/><stop offset="0.48" style="stop-color:#081a2d;stop-opacity:1"/><stop offset="1" style="stop-color:#1d3c60;stop-opacity:1"/></radialGradient></defs></svg>